<?xml version="1.0" encoding="utf-8"?>
<svg xmlns="http://www.w3.org/2000/svg" height="512pt" version="1.1" viewBox="0 0 512 512" width="512pt">
<path d="M 164.82 112.75 C 198.49 98.48 236.00 94.44 272.17 98.85 C 288.12 100.97 303.65 105.40 318.86 110.54 C 324.39 112.69 329.83 115.11 335.20 117.64 C 336.35 118.22 337.65 118.28 338.93 118.38 C 352.30 119.49 365.61 122.40 377.77 128.19 C 382.48 130.62 387.88 129.53 392.95 130.07 C 400.42 130.59 408.27 129.53 415.36 132.51 C 423.13 135.46 430.05 142.38 430.62 151.01 C 430.74 159.40 429.30 167.71 428.28 176.01 C 427.46 180.09 431.60 182.94 431.33 187.00 C 431.02 191.66 430.21 196.32 430.56 201.01 C 433.07 210.59 437.37 219.90 437.69 229.93 C 439.00 241.02 436.55 252.11 434.36 262.94 C 431.51 275.15 427.54 287.09 422.76 298.67 C 421.18 302.81 418.25 306.46 417.77 310.98 C 416.94 319.97 415.74 328.92 415.45 337.95 C 413.97 348.52 415.40 360.41 408.49 369.36 C 404.44 374.54 398.16 377.07 391.87 378.19 C 385.86 378.99 379.90 377.59 373.98 376.81 C 358.64 375.04 343.39 372.62 328.01 371.31 C 314.34 369.49 300.63 367.97 287.01 365.82 C 279.27 364.39 272.50 358.78 270.27 351.14 C 268.86 358.64 265.32 365.62 260.19 371.25 C 253.98 377.46 244.45 380.13 235.98 377.61 C 231.03 376.58 227.44 372.79 223.07 370.60 C 214.15 372.49 204.99 371.06 195.96 371.29 C 182.34 370.39 168.67 370.77 155.03 370.26 C 152.16 369.97 149.19 369.38 146.46 370.68 C 139.11 373.92 132.13 378.67 123.94 379.45 C 115.20 380.15 106.90 375.42 101.46 368.85 C 94.12 359.31 91.39 346.85 91.22 335.02 C 90.78 327.59 93.32 320.23 97.49 314.16 C 94.88 310.52 90.88 307.88 89.34 303.53 C 87.88 299.84 86.53 295.98 86.54 291.96 C 86.37 287.90 88.44 284.03 87.67 279.94 C 85.65 267.26 82.65 254.75 80.92 242.02 C 78.45 225.31 76.81 207.97 81.29 191.45 C 82.57 186.00 84.67 180.80 86.76 175.63 C 94.00 161.35 105.56 149.52 119.09 141.10 C 120.71 140.14 119.29 138.28 118.83 137.07 C 114.18 128.83 116.32 116.69 124.82 111.81 C 132.26 107.51 141.79 108.80 149.00 112.99 C 150.41 115.05 151.71 117.28 153.82 118.72 C 157.16 116.20 161.01 114.45 164.82 112.75 Z" fill="#fcfcfc" opacity="1.00" stroke="#fcfcfc" stroke-width="0.25"/>
<path d="M 206.89 121.15 C 210.68 115.88 216.25 111.37 222.96 110.89 C 232.61 109.65 242.22 117.26 243.39 126.86 C 243.84 134.70 238.62 141.80 232.01 145.52 C 243.19 160.90 248.05 180.16 247.91 198.99 C 248.01 203.43 246.89 207.74 246.08 212.06 C 246.54 214.24 248.30 215.85 249.34 217.77 C 258.50 231.64 264.12 247.40 269.51 263.00 C 272.62 272.96 275.37 283.88 272.01 294.14 C 269.26 302.38 261.79 307.66 254.95 312.39 C 262.80 322.43 267.78 335.16 267.00 348.04 C 266.60 355.67 263.78 363.26 258.72 369.03 C 253.28 374.94 244.55 377.06 236.88 375.02 C 231.76 373.72 227.50 370.29 223.89 366.57 C 221.97 368.22 219.50 369.02 216.97 368.78 C 195.63 368.35 174.29 367.90 152.96 367.44 C 151.36 367.53 150.08 366.47 148.77 365.73 C 140.84 369.77 133.02 374.75 124.04 376.01 C 116.61 377.05 108.79 373.73 104.40 367.64 C 96.42 356.62 92.28 342.52 94.12 328.96 C 94.78 323.00 98.90 318.24 100.70 312.82 C 93.82 307.39 89.00 298.91 89.30 289.99 C 88.97 283.16 91.83 276.79 94.32 270.59 C 100.72 256.05 109.20 242.57 116.87 228.69 C 118.41 226.00 120.46 223.63 121.91 220.89 C 122.19 219.55 120.81 218.65 120.30 217.56 C 116.37 211.85 114.97 204.79 114.68 197.98 C 114.81 179.53 118.69 160.14 130.58 145.50 C 126.71 142.45 122.30 139.48 120.49 134.67 C 118.17 128.71 118.35 120.96 123.35 116.40 C 129.50 109.68 141.47 109.71 147.63 116.39 C 149.39 118.02 150.74 120.02 152.02 122.03 C 167.81 117.44 184.81 116.40 200.96 119.66 C 202.99 119.85 204.92 121.66 206.89 121.15 Z" fill="#051657" opacity="1.00" stroke="#051657" stroke-width="0.25"/>
<path d="M 131.99 113.97 C 137.41 113.09 143.20 115.03 146.97 119.03 C 148.61 120.82 149.88 122.90 151.40 124.79 C 151.64 125.08 152.12 125.66 152.36 125.95 C 156.34 125.67 160.08 124.19 163.96 123.39 C 169.98 121.95 176.13 121.19 182.25 120.35 C 190.89 120.10 199.83 120.89 207.68 124.81 C 210.49 120.15 214.14 115.48 219.53 113.75 C 225.50 112.68 232.56 113.47 236.59 118.52 C 240.26 122.05 241.66 127.39 240.27 132.29 C 238.82 136.63 235.61 140.29 231.79 142.74 C 229.69 143.36 228.50 141.25 227.26 140.03 C 231.38 137.44 234.47 132.92 234.47 127.95 C 234.63 125.77 232.90 123.98 231.20 122.88 C 225.74 120.68 219.18 122.02 214.80 125.87 C 213.69 126.76 214.25 128.05 214.49 129.20 C 220.92 133.87 225.95 140.24 230.08 146.98 C 240.14 160.86 244.38 178.14 245.40 195.03 C 246.22 203.95 242.34 212.84 236.04 219.05 C 231.54 223.73 225.91 227.17 220.14 230.06 C 214.74 232.92 209.16 235.47 203.32 237.29 C 192.38 241.24 180.61 243.93 168.95 242.16 C 154.19 239.58 140.43 232.56 128.99 223.00 C 123.78 218.29 118.73 212.33 118.23 205.02 C 117.39 197.50 119.98 190.33 121.25 183.04 C 121.29 177.00 122.63 171.09 124.67 165.43 C 129.82 152.74 137.84 141.29 147.83 131.93 C 147.79 130.69 147.73 129.45 147.65 128.21 C 146.85 127.53 146.06 126.85 145.28 126.15 C 143.09 123.94 140.19 122.04 136.93 122.44 C 132.96 122.45 127.89 125.47 128.53 129.99 C 128.75 133.76 131.85 136.31 134.46 138.63 C 135.52 140.30 133.33 141.55 132.57 142.81 C 128.48 141.78 124.60 138.30 123.21 134.30 C 123.19 129.29 122.86 123.60 126.45 119.60 C 128.98 116.18 133.41 115.59 137.21 114.47 C 135.47 114.26 133.73 114.10 131.99 113.97 Z" fill="#f76005" opacity="1.00" stroke="#f76005" stroke-width="0.25"/>
<path d="M 121.41 125.91 C 121.85 120.18 126.42 115.20 131.99 113.97 C 133.73 114.10 135.47 114.26 137.21 114.47 C 133.41 115.59 128.98 116.18 126.45 119.60 C 122.86 123.60 123.19 129.29 123.21 134.30 C 122.03 131.68 121.00 128.84 121.41 125.91 Z" fill="#fcfcfc" opacity="1.00" stroke="#fcfcfc" stroke-width="0.25"/>
<path d="M 151.40 124.79 C 161.30 121.35 171.83 120.38 182.25 120.35 C 176.13 121.19 169.98 121.95 163.96 123.39 C 160.08 124.19 156.34 125.67 152.36 125.95 C 152.12 125.66 151.64 125.08 151.40 124.79 Z" fill="#fcfcfc" opacity="1.00" stroke="#fcfcfc" stroke-width="0.25"/>
<path d="M 176.19 126.63 C 182.03 126.61 188.26 124.04 193.90 126.16 C 188.04 126.36 181.87 128.88 176.19 126.63 Z" fill="#051657" opacity="1.00" stroke="#051657" stroke-width="0.25"/>
<path d="M 145.28 126.15 C 146.06 126.85 146.85 127.53 147.65 128.21 C 147.73 129.45 147.79 130.69 147.83 131.93 C 137.84 141.29 129.82 152.74 124.67 165.43 C 122.63 171.09 121.29 177.00 121.25 183.04 C 119.98 190.33 117.39 197.50 118.23 205.02 C 116.62 195.32 117.74 185.46 119.43 175.85 C 121.98 162.83 128.35 150.74 137.04 140.78 C 140.02 137.43 142.52 132.95 147.21 131.88 C 147.19 130.62 147.17 129.36 147.16 128.10 C 146.53 127.45 145.90 126.80 145.28 126.15 Z" fill="#fcfcfc" opacity="1.00" stroke="#fcfcfc" stroke-width="0.25"/>
<path d="M 307.09 131.26 C 311.50 128.41 316.97 128.48 322.02 128.56 C 348.72 129.41 375.36 131.46 402.06 132.35 C 410.66 132.58 420.21 135.14 425.13 142.80 C 428.03 146.53 428.86 151.40 428.25 156.00 C 427.38 164.73 426.53 173.47 425.43 182.17 C 426.43 183.02 427.45 183.84 428.37 184.79 C 429.14 189.73 428.25 194.77 427.37 199.64 C 426.32 199.86 425.28 200.08 424.25 200.30 C 422.91 211.52 422.24 222.83 420.85 234.05 C 420.12 235.66 421.81 236.72 422.61 237.82 C 422.29 242.57 421.75 247.30 421.27 252.04 C 420.82 252.43 419.94 253.22 419.49 253.61 C 416.23 287.37 414.68 321.28 411.51 355.05 C 410.93 363.39 405.14 371.11 397.43 374.22 C 390.56 376.84 383.12 375.24 376.07 374.48 C 348.77 370.71 321.39 367.63 294.05 364.25 C 289.20 363.48 284.07 362.98 279.90 360.15 C 274.02 356.24 271.26 348.89 271.79 342.01 C 272.96 328.30 274.92 314.68 276.62 301.04 C 279.60 273.70 283.38 246.45 286.75 219.15 C 289.66 195.08 292.51 171.00 296.04 147.02 C 296.76 140.33 301.26 134.43 307.09 131.26 Z" fill="#051657" opacity="1.00" stroke="#051657" stroke-width="0.25"/>
<path d="M 298.16 148.05 C 299.02 140.44 304.77 133.76 312.09 131.62 C 316.98 130.61 322.01 131.29 326.96 131.29 C 338.98 131.41 350.96 132.34 362.97 132.74 C 372.90 133.86 382.93 133.31 392.87 134.36 C 396.90 134.82 401.08 134.08 405.01 135.34 C 399.69 135.22 394.38 135.23 389.09 134.66 C 365.40 134.34 341.79 132.08 318.09 132.28 C 308.83 132.47 300.14 139.61 298.87 148.90 C 295.31 172.85 292.94 196.94 289.84 220.94 C 284.56 261.86 280.04 302.89 274.32 343.75 C 272.65 343.84 274.17 341.98 274.20 341.22 C 275.61 326.07 278.28 311.05 279.58 295.88 C 283.47 265.60 287.19 235.31 291.03 205.03 C 293.26 186.02 295.36 166.99 298.16 148.05 Z" fill="#fcfcfc" opacity="1.00" stroke="#fcfcfc" stroke-width="0.25"/>
<path d="M 142.44 168.47 C 142.53 166.41 141.80 163.48 144.10 162.35 C 150.84 162.27 157.62 162.12 164.34 162.67 C 166.35 163.44 165.48 165.81 165.61 167.45 C 162.97 168.93 159.92 168.37 157.04 168.37 C 152.17 168.21 147.31 168.81 142.44 168.47 Z" fill="#051657" opacity="1.00" stroke="#051657" stroke-width="0.25"/>
<path d="M 192.50 162.55 C 199.41 162.38 206.37 162.04 213.26 162.65 C 214.61 164.44 216.85 167.77 214.18 169.37 C 207.61 167.86 200.87 169.08 194.24 168.62 C 191.60 167.90 192.14 164.61 192.50 162.55 Z" fill="#051657" opacity="1.00" stroke="#051657" stroke-width="0.25"/>
<path d="M 306.63 165.47 C 341.88 167.66 377.13 170.06 412.37 172.51 C 409.74 195.63 408.29 218.87 405.93 242.03 C 403.67 267.35 401.09 292.64 398.73 317.96 C 398.24 325.18 397.13 332.36 397.17 339.61 C 395.77 339.75 394.37 339.91 392.98 339.75 C 358.09 335.78 323.22 331.54 288.26 328.18 C 293.01 285.64 298.09 243.12 302.74 200.56 C 304.12 188.87 305.59 177.19 306.63 165.47 Z" fill="#fcfcfc" opacity="1.00" stroke="#fcfcfc" stroke-width="0.25"/>
<path d="M 149.93 170.77 C 152.92 169.28 156.30 169.33 159.32 170.71 C 161.87 174.29 158.52 180.46 154.00 179.60 C 149.88 179.57 146.59 173.85 149.93 170.77 Z" fill="#051657" opacity="1.00" stroke="#051657" stroke-width="0.25"/>
<path d="M 198.45 171.79 C 201.30 168.65 205.73 169.68 209.29 170.76 C 211.45 173.73 209.50 176.97 207.51 179.39 C 205.57 179.57 203.57 180.04 201.67 179.42 C 199.18 177.76 198.26 174.65 198.45 171.79 Z" fill="#051657" opacity="1.00" stroke="#051657" stroke-width="0.25"/>
<path d="M 154.26 171.09 C 155.26 171.29 156.26 171.49 157.27 171.68 C 157.32 172.12 157.44 173.01 157.50 173.45 C 156.43 173.54 155.36 173.62 154.29 173.70 C 154.28 173.05 154.27 171.74 154.26 171.09 Z" fill="#fcfcfc" opacity="1.00" stroke="#fcfcfc" stroke-width="0.25"/>
<path d="M 202.25 172.45 C 203.22 171.91 204.30 171.71 205.39 171.59 C 205.66 171.93 206.20 172.61 206.48 172.95 C 206.20 173.33 205.64 174.10 205.36 174.49 C 203.98 174.41 203.06 173.46 202.25 172.45 Z" fill="#fcfcfc" opacity="1.00" stroke="#fcfcfc" stroke-width="0.25"/>
<path d="M 171.27 172.33 C 175.40 172.72 180.36 171.88 183.39 175.54 C 188.70 182.01 191.97 189.97 193.99 198.05 C 195.45 203.90 197.34 209.88 196.39 215.98 C 195.67 219.42 195.85 223.12 194.00 226.23 C 193.43 226.31 192.30 226.48 191.74 226.57 C 185.16 235.14 170.22 236.46 163.21 227.73 C 158.14 220.78 156.08 211.37 158.68 203.07 C 162.79 192.91 169.59 183.90 172.57 173.28 C 172.30 173.08 171.75 172.69 171.48 172.49 L 171.27 172.33 Z" fill="#fcfcfc" opacity="1.00" stroke="#fcfcfc" stroke-width="0.25"/>
<path d="M 170.98 172.14 L 171.48 172.49 C 171.75 172.69 172.30 173.08 172.57 173.28 C 169.59 183.90 162.79 192.91 158.68 203.07 C 156.08 211.37 158.14 220.78 163.21 227.73 C 170.22 236.46 185.16 235.14 191.74 226.57 C 192.30 226.48 193.43 226.31 194.00 226.23 C 193.44 226.35 192.32 226.60 191.77 226.73 C 192.25 230.21 188.95 232.04 186.43 233.59 C 179.85 237.07 171.43 237.13 165.20 232.83 C 155.98 226.09 153.01 212.69 156.42 202.16 C 161.10 192.07 166.97 182.53 170.98 172.14 Z" fill="#051657" opacity="1.00" stroke="#051657" stroke-width="0.25"/>
<path d="M 349.13 185.11 C 360.56 182.70 372.51 188.55 379.44 197.57 C 381.43 201.37 383.97 204.96 385.28 209.07 C 387.65 221.05 385.87 234.43 378.30 244.30 C 371.96 251.54 362.70 256.31 353.00 256.47 C 345.62 256.02 338.28 253.29 332.80 248.26 C 326.70 243.08 321.21 236.24 320.21 228.07 C 320.23 219.31 322.23 210.61 325.54 202.53 C 330.73 193.93 338.97 186.81 349.13 185.11 Z" fill="#051657" opacity="1.00" stroke="#051657" stroke-width="0.25"/>
<path d="M 328.42 202.33 C 333.33 193.47 342.94 187.53 352.98 186.65 C 359.36 186.17 365.42 188.72 370.55 192.32 C 374.79 194.71 377.37 198.98 380.19 202.78 C 384.61 210.40 384.38 219.60 383.14 228.06 C 382.62 232.76 380.27 236.96 377.93 240.97 C 373.98 245.09 369.77 249.28 364.56 251.77 C 363.07 252.70 361.31 251.84 359.91 251.17 C 363.29 251.37 362.98 245.85 360.33 244.98 C 360.70 246.98 361.85 250.04 358.87 250.53 C 358.74 249.10 358.64 247.68 358.55 246.25 C 358.26 246.25 357.68 246.26 357.40 246.27 C 357.49 247.56 357.46 248.88 357.78 250.15 C 358.32 251.05 359.70 251.62 359.74 252.74 C 357.94 254.01 355.38 253.25 353.39 253.97 C 353.51 253.28 353.74 251.90 353.85 251.21 L 355.69 252.30 C 355.31 250.53 355.00 248.72 355.21 246.90 C 354.32 246.82 353.43 246.74 352.55 246.67 C 352.07 246.96 351.10 247.55 350.62 247.85 C 350.90 249.49 349.55 252.51 352.80 251.91 C 352.13 252.54 351.46 253.17 350.79 253.81 C 342.58 253.07 335.16 248.34 329.69 242.38 C 331.95 243.45 333.05 241.60 334.54 240.48 C 335.01 239.41 334.52 237.30 336.04 237.07 C 338.74 240.62 342.85 242.52 346.96 243.91 C 346.99 243.21 347.07 241.82 347.10 241.12 C 346.78 240.92 346.14 240.52 345.82 240.32 C 350.37 242.30 355.70 242.38 360.32 240.56 C 360.87 240.25 361.97 239.63 362.52 239.32 C 363.45 238.56 364.28 237.68 365.23 236.94 L 366.70 236.17 C 368.37 234.37 369.30 232.08 370.04 229.77 C 370.41 228.95 370.76 228.11 371.10 227.27 C 373.31 222.48 373.18 216.59 371.06 211.78 C 367.13 204.28 359.11 196.80 349.95 199.62 C 345.55 200.46 341.58 203.00 339.17 206.81 C 337.17 210.47 335.70 214.42 334.73 218.47 C 333.84 222.28 334.58 226.21 334.18 230.07 C 331.34 225.35 332.49 219.61 333.32 214.50 C 334.71 205.72 341.92 197.64 351.00 196.70 C 362.64 195.11 373.97 205.51 374.37 217.01 C 375.04 222.95 372.98 228.86 369.84 233.82 C 367.15 237.77 363.33 241.58 358.27 241.87 C 358.94 242.41 359.61 242.94 360.29 243.48 C 368.53 240.21 374.00 232.16 375.52 223.62 C 376.09 219.63 375.66 215.59 375.13 211.63 C 376.99 211.62 378.86 211.61 380.73 211.60 C 382.42 208.34 380.21 205.34 378.58 202.62 L 377.09 202.57 C 375.67 200.31 374.51 197.89 373.02 195.67 C 370.89 196.94 368.46 198.10 367.51 200.59 C 366.46 199.63 365.39 198.69 364.33 197.75 C 364.81 197.37 365.75 196.60 366.23 196.22 C 366.24 195.37 366.26 194.52 366.28 193.67 C 364.45 192.22 362.48 190.67 360.01 190.78 C 355.27 190.67 350.25 189.97 345.72 191.72 C 343.57 193.26 345.57 196.31 343.93 198.12 C 343.01 198.48 342.08 198.81 341.14 199.10 C 340.50 198.19 339.84 197.30 339.17 196.42 C 338.28 196.02 337.39 195.66 336.50 195.29 C 334.21 197.38 332.25 199.81 331.40 202.85 C 330.70 202.98 329.28 203.26 328.57 203.39 C 328.11 205.48 326.60 207.74 327.93 209.81 C 329.33 211.00 331.17 211.41 332.89 211.97 C 331.92 215.61 330.64 219.25 330.77 223.07 C 330.77 227.39 332.54 231.45 334.52 235.21 L 334.24 235.42 C 333.48 236.04 332.48 235.36 331.63 235.37 C 332.38 236.43 333.15 237.48 333.92 238.52 C 331.29 237.48 330.46 240.57 330.38 242.33 C 328.06 240.42 326.11 238.14 324.62 235.53 C 326.71 235.76 328.80 235.44 330.67 234.46 C 330.51 233.04 330.31 231.62 329.95 230.24 C 328.72 230.27 327.51 230.35 326.30 230.48 C 325.23 231.78 324.97 233.58 324.12 235.03 C 320.44 224.82 323.58 213.83 327.09 204.04 C 327.42 203.61 328.09 202.76 328.42 202.33 Z" fill="#fcfcfc" opacity="1.00" stroke="#fcfcfc" stroke-width="0.25"/>
<path d="M 345.72 191.72 C 350.25 189.97 355.27 190.67 360.01 190.78 C 362.48 190.67 364.45 192.22 366.28 193.67 C 366.26 194.52 366.24 195.37 366.23 196.22 C 365.75 196.60 364.81 197.37 364.33 197.75 C 365.39 198.69 366.46 199.63 367.51 200.59 C 368.46 198.10 370.89 196.94 373.02 195.67 C 374.51 197.89 375.67 200.31 377.09 202.57 L 378.58 202.62 C 380.21 205.34 382.42 208.34 380.73 211.60 C 378.86 211.61 376.99 211.62 375.13 211.63 C 375.66 215.59 376.09 219.63 375.52 223.62 C 374.00 232.16 368.53 240.21 360.29 243.48 C 359.61 242.94 358.94 242.41 358.27 241.87 C 363.33 241.58 367.15 237.77 369.84 233.82 C 372.98 228.86 375.04 222.95 374.37 217.01 C 373.97 205.51 362.64 195.11 351.00 196.70 C 341.92 197.64 334.71 205.72 333.32 214.50 C 332.49 219.61 331.34 225.35 334.18 230.07 L 334.18 230.11 C 334.41 230.60 334.89 231.59 335.13 232.08 C 335.95 232.95 336.76 233.82 337.59 234.70 L 336.88 237.08 C 336.67 237.08 336.25 237.07 336.04 237.07 C 335.54 236.70 334.52 235.96 334.01 235.60 L 334.24 235.42 L 334.52 235.21 C 332.54 231.45 330.77 227.39 330.77 223.07 C 330.64 219.25 331.92 215.61 332.89 211.97 C 331.17 211.41 329.33 211.00 327.93 209.81 C 326.60 207.74 328.11 205.48 328.57 203.39 C 329.28 203.26 330.70 202.98 331.40 202.85 C 333.12 200.85 334.41 198.54 335.78 196.31 C 336.63 196.33 338.32 196.39 339.17 196.42 C 339.84 197.30 340.50 198.19 341.14 199.10 C 342.08 198.81 343.01 198.48 343.93 198.12 C 345.57 196.31 343.57 193.26 345.72 191.72 Z" fill="#f76005" opacity="1.00" stroke="#f76005" stroke-width="0.25"/>
<path d="M 167.24 194.24 C 173.47 191.33 181.29 191.12 187.17 195.03 C 189.21 199.04 188.25 203.91 185.94 207.59 C 183.76 210.52 180.05 211.60 176.56 211.77 C 176.59 214.57 176.66 217.38 176.79 220.18 C 180.18 221.91 184.00 221.99 187.71 221.69 C 185.14 225.63 179.48 224.42 175.67 223.16 C 171.51 224.58 164.77 225.38 163.02 220.17 C 166.70 221.52 170.76 222.08 174.39 220.20 C 174.65 217.57 174.85 214.90 174.52 212.27 C 170.90 211.10 166.83 209.58 165.47 205.62 C 164.37 202.00 163.71 196.73 167.24 194.24 Z" fill="#051657" opacity="1.00" stroke="#051657" stroke-width="0.25"/>
<path d="M 167.83 197.72 C 172.26 193.70 179.52 193.98 184.55 196.74 C 184.20 197.25 183.87 197.78 183.56 198.32 C 178.39 196.97 173.07 198.18 167.83 197.72 Z" fill="#fcfcfc" opacity="1.00" stroke="#fcfcfc" stroke-width="0.25"/>
<path d="M 336.50 195.29 C 337.39 195.66 338.28 196.02 339.17 196.42 C 338.32 196.39 336.63 196.33 335.78 196.31 C 334.41 198.54 333.12 200.85 331.40 202.85 C 332.25 199.81 334.21 197.38 336.50 195.29 Z" fill="#051657" opacity="1.00" stroke="#051657" stroke-width="0.25"/>
<path d="M 349.95 199.62 C 359.11 196.80 367.13 204.28 371.06 211.78 C 373.18 216.59 373.31 222.48 371.10 227.27 C 372.51 222.68 372.63 217.66 370.58 213.24 C 369.20 213.87 367.80 214.38 366.34 214.73 C 367.53 213.17 368.68 211.58 369.78 209.95 C 368.00 209.23 366.23 208.51 364.48 207.75 C 363.59 206.04 362.59 204.06 360.31 204.29 C 360.43 203.57 360.68 202.14 360.80 201.43 C 357.57 199.25 353.65 199.52 349.95 199.62 Z" fill="#f76005" opacity="1.00" stroke="#f76005" stroke-width="0.25"/>
<path d="M 339.17 206.81 C 341.58 203.00 345.55 200.46 349.95 199.62 C 349.54 200.12 348.72 201.11 348.31 201.60 C 348.32 202.22 348.34 203.47 348.35 204.09 C 345.92 206.64 342.74 208.71 339.17 206.81 Z" fill="#f76005" opacity="1.00" stroke="#f76005" stroke-width="0.25"/>
<path d="M 349.95 199.62 C 353.65 199.52 357.57 199.25 360.80 201.43 C 360.68 202.14 360.43 203.57 360.31 204.29 C 362.59 204.06 363.59 206.04 364.48 207.75 C 366.23 208.51 368.00 209.23 369.78 209.95 C 368.68 211.58 367.53 213.17 366.34 214.73 C 367.80 214.38 369.20 213.87 370.58 213.24 C 372.63 217.66 372.51 222.68 371.10 227.27 C 370.76 228.11 370.41 228.95 370.04 229.77 C 368.48 230.55 366.91 231.30 365.33 232.04 C 365.69 232.49 366.41 233.37 366.77 233.82 C 366.38 234.60 365.61 236.16 365.23 236.94 C 364.28 237.68 363.45 238.56 362.52 239.32 C 361.97 239.63 360.87 240.25 360.32 240.56 C 355.70 242.38 350.37 242.30 345.82 240.32 C 342.85 238.81 339.96 237.06 337.59 234.70 C 336.76 233.82 335.95 232.95 335.13 232.08 C 335.09 231.65 335.01 230.78 334.97 230.35 L 334.18 230.11 L 334.18 230.07 C 334.58 226.21 333.84 222.28 334.73 218.47 C 335.70 214.42 337.17 210.47 339.17 206.81 C 342.74 208.71 345.92 206.64 348.35 204.09 C 348.34 203.47 348.32 202.22 348.31 201.60 C 348.72 201.11 349.54 200.12 349.95 199.62 Z" fill="#051657" opacity="1.00" stroke="#051657" stroke-width="0.25"/>
<path d="M 338.50 210.74 C 339.63 207.98 340.76 210.81 341.78 211.95 C 340.79 212.54 340.29 213.43 340.28 214.62 C 339.58 213.80 338.87 212.99 338.16 212.21 L 338.50 210.74 Z" fill="#f76005" opacity="1.00" stroke="#f76005" stroke-width="0.25"/>
<path d="M 343.51 214.81 C 349.85 214.91 356.19 215.06 362.51 215.58 C 360.60 221.08 363.85 228.06 359.22 232.51 C 357.24 234.40 354.97 236.09 352.46 237.22 C 350.27 238.05 348.86 235.68 347.40 234.52 C 345.41 232.34 342.53 230.23 342.69 226.95 C 342.37 222.86 343.99 218.90 343.51 214.81 Z" fill="#fcfcfc" opacity="1.00" stroke="#fcfcfc" stroke-width="0.25"/>
<path d="M 241.68 219.59 C 242.78 218.38 243.53 216.58 245.25 216.17 C 252.74 227.23 258.26 239.46 262.73 252.01 C 266.24 261.41 269.84 270.94 270.88 280.98 C 271.76 287.36 270.59 294.37 266.35 299.42 C 261.46 305.31 254.84 309.38 248.51 313.54 C 241.78 317.89 233.96 320.10 226.16 321.54 C 227.33 318.68 230.69 317.73 232.13 315.08 C 226.36 315.90 223.07 321.28 218.95 324.80 C 216.62 322.64 214.77 319.21 216.24 316.05 C 218.11 311.20 222.89 308.51 225.73 304.41 C 219.19 305.86 214.56 312.05 211.80 317.88 C 208.99 312.90 210.79 306.94 213.06 302.13 C 215.37 298.20 218.41 294.75 220.94 290.95 C 221.60 289.62 222.93 289.15 224.35 289.33 C 227.09 285.85 228.70 281.66 230.94 277.86 C 233.39 272.34 236.95 267.43 239.60 262.02 C 237.99 263.13 236.47 264.37 235.00 265.66 C 231.42 262.78 229.18 258.63 227.27 254.54 C 226.81 253.58 226.36 252.56 225.42 251.99 C 225.51 258.27 228.51 264.37 232.78 268.90 C 230.21 272.78 229.14 277.68 225.71 280.94 C 223.81 276.97 224.99 272.14 222.24 268.50 C 220.65 266.75 218.49 265.20 216.02 265.29 C 204.96 264.80 194.03 267.09 183.02 267.61 C 168.30 269.09 153.51 269.96 138.70 269.74 C 143.02 263.02 149.21 257.83 154.06 251.58 C 152.66 251.45 151.27 251.36 149.88 251.24 C 148.79 250.15 147.20 249.83 146.19 251.17 C 141.33 256.25 137.38 262.16 134.48 268.56 C 131.96 269.37 129.31 269.40 126.70 269.61 C 125.12 273.02 126.77 276.58 126.59 280.12 C 124.00 277.42 121.79 274.37 119.22 271.65 C 118.70 271.55 117.68 271.35 117.17 271.25 C 120.08 276.96 125.78 281.19 127.63 287.36 L 128.41 288.09 C 131.65 292.98 136.47 296.48 140.25 300.92 C 138.87 300.22 137.44 299.64 135.98 299.16 C 136.60 301.02 138.61 301.76 139.93 303.07 C 143.59 306.37 147.59 310.69 146.66 316.06 C 146.28 317.21 147.14 319.74 145.24 319.63 C 141.66 315.17 138.26 310.45 133.51 307.12 L 133.26 308.85 C 135.25 311.82 137.54 314.61 139.24 317.77 C 139.76 320.45 139.58 323.21 139.71 325.93 C 135.98 325.50 133.62 322.31 130.89 320.12 C 127.94 317.79 124.86 315.38 121.15 314.45 C 122.33 317.68 126.37 318.47 128.01 321.45 C 123.53 322.04 119.14 320.76 115.11 318.92 C 108.40 316.21 102.40 311.83 97.61 306.43 C 97.55 306.20 97.42 305.75 97.36 305.52 C 96.45 301.98 94.69 298.66 94.30 294.99 C 93.84 289.98 94.05 284.83 95.58 280.00 C 100.60 264.79 109.85 251.55 118.17 238.03 C 120.40 234.92 119.65 230.88 120.45 227.32 C 120.88 225.63 122.21 224.37 123.19 222.98 C 129.80 234.37 140.06 243.76 152.45 248.42 C 162.55 251.81 173.38 252.01 183.90 251.18 C 197.96 249.79 211.92 245.59 223.80 237.80 C 231.00 233.11 236.66 226.48 241.68 219.59 Z" fill="#f76005" opacity="1.00" stroke="#f76005" stroke-width="0.25"/>
<path d="M 345.42 216.45 C 350.39 216.38 355.31 217.59 360.28 217.09 C 359.61 221.06 359.76 225.09 359.91 229.09 C 357.78 231.90 354.80 233.81 351.97 235.82 C 350.98 235.15 350.08 234.37 349.09 233.71 C 349.40 233.36 350.01 232.66 350.32 232.31 C 350.45 227.39 350.29 222.47 350.50 217.55 L 349.27 217.37 C 349.18 222.81 348.24 228.28 349.09 233.71 C 347.94 233.14 346.96 232.29 346.30 231.20 C 346.63 231.07 347.28 230.81 347.61 230.68 C 347.07 226.12 348.61 221.10 346.92 216.85 C 345.74 221.14 346.68 225.68 345.80 229.99 C 345.49 229.85 344.88 229.56 344.57 229.42 C 344.63 225.08 345.54 220.80 345.42 216.45 Z" fill="#f76005" opacity="1.00" stroke="#f76005" stroke-width="0.25"/>
<path d="M 349.27 217.37 L 350.50 217.55 C 350.29 222.47 350.45 227.39 350.32 232.31 C 350.01 232.66 349.40 233.36 349.09 233.71 C 348.24 228.28 349.18 222.81 349.27 217.37 Z" fill="#fcfcfc" opacity="1.00" stroke="#fcfcfc" stroke-width="0.25"/>
<path d="M 351.57 217.27 C 353.08 218.20 354.69 218.46 356.42 218.06 C 355.61 222.60 355.81 227.22 355.69 231.81 C 354.55 232.97 352.76 233.34 351.51 234.42 C 351.31 228.70 352.17 222.97 351.57 217.27 Z" fill="#fcfcfc" opacity="1.00" stroke="#fcfcfc" stroke-width="0.25"/>
<path d="M 357.45 217.74 C 357.91 217.95 358.82 218.39 359.28 218.60 C 357.69 222.56 360.48 227.80 357.23 230.95 C 357.20 226.54 357.47 222.14 357.45 217.74 Z" fill="#fcfcfc" opacity="1.00" stroke="#fcfcfc" stroke-width="0.25"/>
<path d="M 353.21 218.38 L 354.45 218.77 C 354.51 223.30 354.32 227.84 353.96 232.36 L 352.59 232.75 C 353.15 227.98 353.25 223.18 353.21 218.38 Z" fill="#f76005" opacity="1.00" stroke="#f76005" stroke-width="0.25"/>
<path d="M 325.11 220.60 C 326.28 220.56 327.45 220.51 328.62 220.45 C 328.65 220.74 328.69 221.30 328.72 221.59 C 328.10 221.50 326.87 221.32 326.25 221.22 C 326.34 221.92 326.52 223.30 326.61 223.99 C 324.60 223.87 324.18 222.15 325.11 220.60 Z" fill="#051657" opacity="1.00" stroke="#051657" stroke-width="0.25"/>
<path d="M 327.13 225.47 C 327.39 225.12 327.93 224.42 328.20 224.07 C 328.42 225.25 328.66 226.44 328.90 227.63 C 327.56 227.57 326.28 227.81 325.08 228.39 C 323.50 226.90 325.65 225.33 327.13 225.47 Z" fill="#051657" opacity="1.00" stroke="#051657" stroke-width="0.25"/>
<path d="M 117.13 234.09 C 117.00 231.40 119.14 229.43 120.45 227.32 C 119.65 230.88 120.40 234.92 118.17 238.03 C 109.85 251.55 100.60 264.79 95.58 280.00 C 94.05 284.83 93.84 289.98 94.30 294.99 C 94.69 298.66 96.45 301.98 97.36 305.52 C 91.45 298.63 90.63 288.73 93.24 280.30 C 95.34 274.04 97.98 267.96 101.03 262.11 C 106.07 253.23 110.41 243.91 116.40 235.62 C 117.28 235.29 118.17 235.00 119.08 234.75 C 118.59 234.58 117.62 234.25 117.13 234.09 Z" fill="#fcfcfc" opacity="1.00" stroke="#fcfcfc" stroke-width="0.25"/>
<path d="M 376.19 229.34 C 377.68 228.39 379.65 228.80 380.90 229.92 C 381.17 232.03 380.03 233.92 379.22 235.77 C 377.68 234.99 376.13 234.22 374.88 233.01 C 376.61 232.32 377.01 230.98 376.19 229.34 Z" fill="#051657" opacity="1.00" stroke="#051657" stroke-width="0.25"/>
<path d="M 365.33 232.04 C 366.91 231.30 368.48 230.55 370.04 229.77 C 369.30 232.08 368.37 234.37 366.70 236.17 L 365.23 236.94 C 365.61 236.16 366.38 234.60 366.77 233.82 C 366.41 233.37 365.69 232.49 365.33 232.04 Z" fill="#f76005" opacity="1.00" stroke="#f76005" stroke-width="0.25"/>
<path d="M 378.26 230.70 C 379.53 229.63 380.36 231.93 379.22 232.60 C 377.82 234.08 376.90 231.41 378.26 230.70 Z" fill="#fcfcfc" opacity="1.00" stroke="#fcfcfc" stroke-width="0.25"/>
<path d="M 327.21 231.38 C 328.64 230.30 330.67 232.49 328.91 233.54 C 327.55 234.73 325.56 232.32 327.21 231.38 Z" fill="#fcfcfc" opacity="1.00" stroke="#fcfcfc" stroke-width="0.25"/>
<path d="M 372.47 237.32 C 373.40 237.19 374.33 237.22 375.27 237.42 C 375.63 237.91 376.35 238.87 376.71 239.35 C 376.46 239.85 375.98 240.85 375.74 241.34 C 374.76 239.72 370.86 239.66 372.47 237.32 Z" fill="#051657" opacity="1.00" stroke="#051657" stroke-width="0.25"/>
<path d="M 360.32 240.56 C 360.87 240.25 361.97 239.63 362.52 239.32 C 361.97 239.63 360.87 240.25 360.32 240.56 Z" fill="#f76005" opacity="1.00" stroke="#f76005" stroke-width="0.25"/>
<path d="M 371.03 240.32 C 372.44 239.62 374.57 241.40 373.97 242.91 C 372.71 243.51 370.46 241.66 371.03 240.32 Z" fill="#051657" opacity="1.00" stroke="#051657" stroke-width="0.25"/>
<path d="M 367.07 244.60 C 367.42 243.44 366.81 241.30 368.55 241.19 C 369.40 242.57 372.37 243.92 370.92 245.75 C 369.51 243.43 367.06 249.59 368.26 245.99 L 368.82 244.25 L 367.07 244.60 Z" fill="#051657" opacity="1.00" stroke="#051657" stroke-width="0.25"/>
<path d="M 358.66 244.10 C 355.01 243.61 350.08 245.97 347.41 242.65 C 350.44 243.33 353.78 243.83 356.74 242.58 C 357.38 243.08 358.02 243.58 358.66 244.10 Z" fill="#f76005" opacity="1.00" stroke="#f76005" stroke-width="0.25"/>
<path d="M 364.21 243.83 C 366.04 244.61 366.62 246.68 367.67 248.20 C 366.64 248.45 365.62 248.70 364.61 248.95 C 364.45 247.24 364.30 245.53 364.21 243.83 Z" fill="#051657" opacity="1.00" stroke="#051657" stroke-width="0.25"/>
<path d="M 353.12 250.84 C 351.57 251.30 351.57 247.51 353.13 248.09 C 353.13 248.78 353.13 250.15 353.12 250.84 Z" fill="#fcfcfc" opacity="1.00" stroke="#fcfcfc" stroke-width="0.25"/>
<path d="M 149.88 251.24 C 151.27 251.36 152.66 251.45 154.06 251.58 C 149.21 257.83 143.02 263.02 138.70 269.74 C 138.10 269.69 136.90 269.58 136.30 269.53 C 139.88 262.85 143.92 256.06 149.88 251.24 Z" fill="#fcfcfc" opacity="1.00" stroke="#fcfcfc" stroke-width="0.25"/>
<path d="M 213.16 273.81 C 215.22 272.36 217.11 270.70 219.16 269.25 C 219.71 269.56 220.26 269.87 220.83 270.16 C 218.48 271.71 216.20 273.38 213.71 274.71 C 215.02 279.78 214.80 285.13 214.48 290.32 C 213.28 285.99 213.85 281.37 213.25 276.94 C 211.92 274.76 209.75 273.04 207.05 273.49 C 182.56 273.99 158.05 274.48 133.59 275.77 C 132.86 279.13 133.10 282.58 133.53 285.97 C 132.97 282.29 131.16 277.40 134.31 274.49 C 135.77 273.85 137.40 273.87 138.96 273.76 C 159.93 272.74 180.94 272.65 201.93 272.13 C 205.72 272.16 209.87 271.43 213.16 273.81 Z" fill="#fcfcfc" opacity="1.00" stroke="#fcfcfc" stroke-width="0.25"/>
<path d="M 156.69 299.84 C 161.57 289.64 174.09 283.67 185.04 287.02 C 189.13 288.01 192.63 290.62 195.29 293.82 C 197.39 296.41 200.09 298.56 201.51 301.65 C 203.13 304.69 203.23 308.25 203.15 311.62 C 201.13 311.49 199.12 311.41 197.10 311.35 C 196.99 310.37 196.77 308.42 196.66 307.44 C 195.87 304.93 194.67 302.57 193.77 300.10 C 194.66 299.23 195.50 298.33 196.32 297.41 C 194.70 295.66 193.07 293.94 191.41 292.25 C 190.07 293.18 188.73 294.09 187.42 295.04 C 187.11 293.49 187.57 291.66 186.65 290.28 C 181.43 287.90 175.11 288.07 170.09 290.88 C 170.15 292.62 172.02 295.52 169.17 295.77 C 167.79 294.93 166.77 293.38 165.15 293.02 C 162.81 293.78 161.48 296.02 160.15 297.93 C 160.58 298.18 161.44 298.69 161.87 298.94 C 162.21 299.23 162.89 299.79 163.23 300.07 C 163.02 303.20 160.78 305.83 160.98 309.03 C 160.91 309.83 160.78 311.44 160.72 312.24 C 158.89 312.21 157.06 312.20 155.23 312.23 C 154.96 308.07 154.75 303.67 156.69 299.84 Z" fill="#fcfcfc" opacity="1.00" stroke="#fcfcfc" stroke-width="0.25"/>
<path d="M 128.07 286.99 C 130.65 288.25 132.18 290.80 134.29 292.64 C 138.75 296.79 143.64 300.91 145.86 306.78 C 143.95 304.87 142.06 302.93 140.25 300.92 C 136.47 296.48 131.65 292.98 128.41 288.09 L 128.07 286.99 Z" fill="#fcfcfc" opacity="1.00" stroke="#fcfcfc" stroke-width="0.25"/>
<path d="M 170.09 290.88 C 175.11 288.07 181.43 287.90 186.65 290.28 C 187.57 291.66 187.11 293.49 187.42 295.04 C 188.73 294.09 190.07 293.18 191.41 292.25 C 193.07 293.94 194.70 295.66 196.32 297.41 C 195.50 298.33 194.66 299.23 193.77 300.10 C 193.44 300.32 192.79 300.76 192.46 300.98 C 189.73 297.35 185.89 294.00 181.09 293.97 C 175.31 293.32 169.59 295.74 165.46 299.71 C 164.52 298.50 163.32 298.24 161.87 298.94 C 161.44 298.69 160.58 298.18 160.15 297.93 C 161.48 296.02 162.81 293.78 165.15 293.02 C 166.77 293.38 167.79 294.93 169.17 295.77 C 172.02 295.52 170.15 292.62 170.09 290.88 Z" fill="#f76005" opacity="1.00" stroke="#f76005" stroke-width="0.25"/>
<path d="M 175.68 296.59 C 180.57 295.60 186.13 296.70 189.59 300.50 C 189.58 300.91 189.57 301.72 189.57 302.13 L 189.59 302.42 L 189.78 302.65 C 191.09 305.08 192.35 307.55 193.66 309.99 C 195.07 319.06 185.98 327.42 177.04 325.35 C 166.79 325.61 160.56 313.11 165.32 304.52 C 168.19 301.26 171.33 297.78 175.68 296.59 Z" fill="#051657" opacity="1.00" stroke="#051657" stroke-width="0.25"/>
<path d="M 161.87 298.94 C 163.32 298.24 164.52 298.50 165.46 299.71 C 164.84 300.44 164.10 300.57 163.23 300.07 C 162.89 299.79 162.21 299.23 161.87 298.94 Z" fill="#051657" opacity="1.00" stroke="#051657" stroke-width="0.25"/>
<path d="M 189.59 300.50 C 190.05 300.44 190.98 300.33 191.45 300.27 C 192.02 300.89 192.47 301.59 192.81 302.38 C 192.05 302.44 190.54 302.58 189.78 302.65 C 189.73 302.52 189.62 302.26 189.57 302.13 C 189.57 301.72 189.58 300.91 189.59 300.50 Z" fill="#fcfcfc" opacity="1.00" stroke="#fcfcfc" stroke-width="0.25"/>
<path d="M 164.71 303.30 C 164.86 303.60 165.16 304.21 165.32 304.52 C 160.56 313.11 166.79 325.61 177.04 325.35 C 185.98 327.42 195.07 319.06 193.66 309.99 C 194.23 312.14 194.36 314.38 194.41 316.61 L 194.43 317.41 L 192.39 318.04 C 195.63 320.19 196.12 314.54 196.63 312.49 C 198.76 312.50 200.90 312.49 203.05 312.47 C 203.03 318.11 200.13 323.27 196.56 327.45 C 189.69 333.95 178.84 336.14 170.05 332.55 C 161.79 329.59 155.95 321.40 155.25 312.74 C 157.03 312.74 158.81 312.72 160.58 312.68 L 161.03 314.19 C 161.63 316.51 162.64 318.87 161.88 321.30 C 158.97 319.39 161.21 324.59 161.88 321.30 C 162.48 321.04 163.66 320.54 164.26 320.29 C 163.15 321.36 162.15 322.54 161.35 323.86 C 162.49 326.22 164.01 323.28 165.29 322.67 C 164.60 323.83 163.91 325.00 163.23 326.17 C 164.53 327.56 166.02 328.79 167.88 329.35 C 168.45 328.10 169.00 326.85 169.55 325.60 C 168.72 325.80 167.06 326.22 166.23 326.42 C 166.30 325.68 166.37 324.95 166.45 324.22 C 167.10 324.51 168.40 325.09 169.05 325.38 C 169.01 324.96 168.92 324.11 168.87 323.69 C 166.45 321.60 164.06 319.09 163.38 315.87 C 162.89 311.63 164.00 307.44 164.71 303.30 Z" fill="#fcfcfc" opacity="1.00" stroke="#fcfcfc" stroke-width="0.25"/>
<path d="M 191.87 303.24 C 194.49 305.91 194.75 309.81 195.56 313.26 C 195.68 314.51 195.29 31power5.63 194.41 316.61 C 194.36 314.38 194.23 312.14 193.66 309.99 C 193.12 307.72 192.45 305.49 191.87 303.24 Z" fill="#f76005" opacity="1.00" stroke="#f76005" stroke-width="0.25"/>
<path d="M 171.68 316.53 C 171.36 313.22 171.45 309.90 171.57 306.59 C 176.24 307.07 181.23 306.15 185.70 307.11 C 185.99 310.28 185.88 313.49 185.54 316.67 L 186.69 316.42 C 186.54 317.75 186.15 319.17 187.48 320.05 C 186.55 319.53 185.67 318.92 184.73 318.42 L 182.71 319.21 C 183.98 315.60 183.60 311.74 183.70 308.00 C 180.31 307.98 176.93 307.99 173.54 307.94 C 175.99 311.14 171.39 315.58 175.26 318.09 C 175.56 314.98 175.90 311.87 176.61 308.82 C 176.63 312.62 176.37 316.43 175.55 320.14 C 178.21 320.15 180.88 320.06 183.51 319.64 C 181.54 320.63 179.55 321.66 178.02 323.30 C 176.67 320.37 172.83 319.63 171.68 316.53 Z" fill="#fcfcfc" opacity="1.00" stroke="#fcfcfc" stroke-width="0.25"/>
<path d="M 247.18 317.39 C 249.26 316.34 251.05 314.46 253.51 314.41 C 256.58 319.80 260.20 324.99 261.99 331.00 C 264.64 339.46 265.69 348.85 262.60 357.35 C 260.96 363.21 257.16 368.64 251.60 371.37 C 245.27 374.58 237.19 373.77 231.53 369.52 C 224.99 364.85 219.44 358.65 215.78 351.49 C 213.79 345.37 214.51 338.77 214.34 332.43 C 215.07 332.48 216.53 332.58 217.26 332.62 C 219.53 330.33 221.12 327.52 223.05 324.98 C 224.73 322.86 227.80 324.07 230.09 323.46 C 236.03 322.27 241.97 320.56 247.18 317.39 Z" fill="#f76005" opacity="1.00" stroke="#f76005" stroke-width="0.25"/>
<path d="M 96.29 335.01 C 96.14 327.85 98.95 320.95 102.93 315.11 C 103.69 317.21 106.27 316.91 107.66 318.36 C 109.78 320.19 112.70 320.58 114.99 322.16 C 113.09 321.82 111.17 321.48 109.51 320.45 C 107.27 319.43 105.38 317.72 102.97 317.09 C 99.06 326.20 98.87 336.26 99.75 345.97 C 101.37 355.11 106.03 363.38 111.66 370.65 C 101.28 362.03 96.43 348.23 96.29 335.01 Z" fill="#fcfcfc" opacity="1.00" stroke="#fcfcfc" stroke-width="0.25"/>
<path d="M 102.97 317.09 C 105.38 317.72 107.27 319.43 109.51 320.45 C 111.17 321.48 113.09 321.82 114.99 322.16 C 119.85 323.45 124.87 325.11 129.84 323.43 C 133.30 325.40 136.01 329.49 140.49 329.58 C 142.07 338.99 142.79 348.55 144.81 357.90 C 145.25 359.89 146.56 361.50 147.72 363.12 C 145.69 365.45 142.55 366.26 139.93 367.75 C 133.94 370.48 127.83 373.95 121.03 373.62 C 117.75 373.64 114.12 372.90 111.66 370.65 C 106.03 363.38 101.37 355.11 99.75 345.97 C 98.87 336.26 99.06 326.20 102.97 317.09 Z" fill="#f76005" opacity="1.00" stroke="#f76005" stroke-width="0.25"/>
<path d="M 160.17 319.30 C 160.87 319.77 160.87 319.77 160.17 319.30 Z" fill="#051657" opacity="1.00" stroke="#051657" stroke-width="0.25"/>
<path d="M 190.46 322.62 C 190.64 321.46 191.70 320.49 192.81 320.25 C 193.43 322.16 191.31 323.04 190.21 324.08 C 192.76 324.00 195.38 322.84 196.36 320.33 C 199.07 320.55 197.58 323.96 195.54 324.34 C 195.58 326.37 193.56 327.70 192.02 328.64 C 190.28 328.44 189.27 326.51 188.47 325.13 C 183.52 328.60 176.91 328.67 171.45 326.41 C 169.37 327.01 170.12 324.53 171.30 325.17 C 177.50 327.76 185.47 327.62 190.46 322.62 Z" fill="#051657" opacity="1.00" stroke="#051657" stroke-width="0.25"/>
<path d="M 161.88 321.30 C 158.97 319.39 161.21 324.59 161.88 321.30 Z" fill="#051657" opacity="1.00" stroke="#051657" stroke-width="0.25"/>
<path d="M 209.94 323.72 C 209.76 323.05 209.89 322.45 210.31 321.90 C 211.87 328.44 211.84 335.29 211.47 341.97 C 210.96 335.89 211.05 329.74 209.94 323.72 Z" fill="#fcfcfc" opacity="1.00" stroke="#fcfcfc" stroke-width="0.25"/>
<path d="M 191.27 326.04 C 194.26 324.52 191.33 329.50 191.27 326.04 Z" fill="#fcfcfc" opacity="1.00" stroke="#fcfcfc" stroke-width="0.25"/>
<path d="M 180.27 330.88 C 181.34 328.95 185.45 329.07 185.67 331.50 C 183.69 332.14 181.54 331.78 179.65 331.04 L 179.74 332.51 C 179.07 332.52 177.74 332.52 177.07 332.52 C 177.27 331.39 177.48 330.25 177.69 329.13 C 178.33 329.57 179.62 330.44 180.27 330.88 Z" fill="#051657" opacity="1.00" stroke="#051657" stroke-width="0.25"/>
<path d="M 175.08 331.57 C 175.22 331.46 175.49 331.24 175.63 331.13 C 175.49 331.24 175.22 331.46 175.08 331.57 Z" fill="#051657" opacity="1.00" stroke="#051657" stroke-width="0.25"/>
<path d="M 262.32 376.36 C 266.46 372.41 270.88 368.78 275.08 364.90 C 276.61 363.06 279.00 366.85 276.86 367.75 C 271.40 372.66 265.95 377.57 260.63 382.63 C 259.81 383.73 258.45 383.81 257.20 383.84 C 256.32 380.09 260.11 378.50 262.32 376.36 Z" fill="#fcfcfc" opacity="1.00" stroke="#fcfcfc" stroke-width="0.25"/>
<text x="5" y="30" fill="#051657" font-size="25" transform="rotate(10 -1400,1950)">OOD</text>
</svg>